<?xml version="1.0" encoding="utf-8"?>
<!-- Generator: Adobe Illustrator 15.1.0, SVG Export Plug-In . SVG Version: 6.00 Build 0)  -->
<!DOCTYPE svg PUBLIC "-//W3C//DTD SVG 1.1//EN" "http://www.w3.org/Graphics/SVG/1.1/DTD/svg11.dtd">
<svg version="1.1" id="Layer_1" xmlns="http://www.w3.org/2000/svg" xmlns:xlink="http://www.w3.org/1999/xlink" x="0px" y="0px"
	 width="1600px" height="389px" viewBox="0 177.5 1600 389" enable-background="new 0 177.5 1600 389" xml:space="preserve">
<polygon opacity="0.1" fill="#EC1E24" enable-background="new    " points="1631.922,305.022 1616.812,383.279 1552.556,333.051 "/>
<polygon opacity="0.8" fill="#EC1E24" enable-background="new    " points="254.774,231 249.742,257.061 228.344,240.334 "/>
<polygon opacity="0.4" fill="#EC1E24" enable-background="new    " points="993.177,188.49 985.418,228.673 952.425,202.882 "/>
<polygon opacity="0.4" fill="#EC1E24" enable-background="new    " points="925.044,450.723 913.883,508.523 866.423,471.424 "/>
<polygon opacity="0.1" fill="#94268C" enable-background="new    " points="1717.34,289.155 1717.261,368.857 1644.684,331.648 "/>
<polygon opacity="0.4" fill="#EC1E24" enable-background="new    " points="934.347,220.875 934.308,259.482 899.152,241.459 "/>
<polygon opacity="0.1" fill="#EC1E24" enable-background="new    " points="1678.495,248.557 1678.454,289.481 1641.188,270.376 "/>
<polygon opacity="0.7" fill="#EC1E24" enable-background="new    " points="329.738,326.722 334.893,345.8 315.109,341.608 "/>
<polygon opacity="0.7" fill="#04AEEC" enable-background="new    " points="361.06,236.926 368.397,264.089 340.232,258.119 "/>
<polygon opacity="0.4" fill="#EC1E24" enable-background="new    " points="921.363,302.6 934.771,359.923 876.299,345.43 "/>
<polygon opacity="0.6" fill="#94268C" enable-background="new    " points="603.203,337.087 589.279,373.095 562.961,343.632 "/>
<polygon opacity="0.1" fill="#94268C" enable-background="new    " points="1849.546,170.782 1834.784,208.952 1806.888,177.721 "/>
<polygon opacity="0.5" fill="#94268C" enable-background="new    " points="774.194,340.867 762.181,407.179 707.363,365.336 "/>
<polygon opacity="0.1" fill="#F45A2C" enable-background="new    " points="1857.501,226.648 1843.293,305.073 1778.463,255.586 "/>
<polygon opacity="0.4" fill="#94268C" enable-background="new    " points="1075.939,366.811 1069.058,404.799 1037.653,380.829 "/>
<polygon opacity="0.5" fill="#242264" enable-background="new    " points="695.682,342.176 667.328,337.039 685.219,313.601 "/>
<polygon opacity="0.6" fill="#FCF204" enable-background="new    " points="671.768,376.854 661.271,434.78 613.39,398.229 "/>
<polygon opacity="0.8" fill="#94268C" enable-background="new    " points="143.259,405.199 145.096,426.588 124.752,418.295 "/>
<polygon opacity="0.2" fill="#94268C" enable-background="new    " points="1131.771,240.938 1138.591,320.347 1063.068,289.559 "/>
<polygon opacity="0.4" fill="#94268C" enable-background="new    " points="1079.695,451.896 1082.996,490.361 1046.414,475.449 "/>
<polygon opacity="0.4" fill="#94268C" enable-background="new    " points="1084.206,206.388 1107.288,240.182 1065.746,245.467 "/>
<polygon opacity="0.1" fill="#94268C" enable-background="new    " points="1661.052,429.428 1680.314,485.057 1620.657,476.688 "/>
<polygon opacity="0.8" fill="#242264" enable-background="new    " points="112.117,394.85 109.42,409.732 97.116,400.342 "/>
<polygon opacity="0.4" fill="#94268C" enable-background="new    " points="1037.501,327.786 1031.794,359.284 1005.756,339.409 "/>
<polygon opacity="0.8" fill="#F45A2C" enable-background="new    " points="172.327,427.512 173.764,444.241 157.852,437.755 "/>
<polygon opacity="0.8" fill="#94268C" enable-background="new    " points="202.848,414.783 204.141,429.854 189.808,424.011 "/>
<polygon opacity="0.9" fill="#94268C" enable-background="new    " points="88.303,388.246 89.674,404.223 74.48,398.028 "/>
<polygon opacity="0.6" fill="#EC1E24" enable-background="new    " points="477.705,360.904 473.252,383.959 454.322,369.161 "/>
<polygon opacity="0.7" fill="#FCF204" enable-background="new    " points="291.285,316.431 286.565,340.871 266.499,325.184 "/>
<polygon opacity="0.6" fill="#EC1E24" enable-background="new    " points="498.594,254.483 498.559,289.119 467.021,272.95 "/>
<polygon opacity="0.9" fill="#EC1E24" enable-background="new    " points="-74.647,299.681 -69.667,318.119 -88.786,314.066 "/>
<polygon opacity="0.8" fill="#EC1E24" enable-background="new    " points="240.692,384.523 247.185,408.555 222.267,403.272 "/>
<polygon opacity="0.1" fill="#F45A2C" enable-background="new    " points="1580.365,389.139 1568.909,468.013 1502.388,420.824 "/>
<polygon opacity="0.1" fill="#F45A2C" enable-background="new    " points="1591.28,260.137 1585.398,300.637 1551.241,276.407 "/>
<polygon opacity="0.2" fill="#3CB64C" enable-background="new    " points="1251.159,330.613 1242.697,388.871 1193.562,354.018 "/>
<polygon opacity="0.1" fill="#94268C" enable-background="new    " points="1404.776,173.762 1406.532,212.329 1370.577,195.959 "/>
<polygon opacity="0.2" fill="#F45A2C" enable-background="new    " points="1141.911,409.418 1143.771,450.301 1105.659,432.949 "/>
<polygon opacity="0.5" fill="#F45A2C" enable-background="new    " points="744.584,438.271 710.693,466.446 700.815,422.441 "/>
<polygon opacity="0.1" fill="#F45A2C" enable-background="new    " points="1324.029,235.395 1337.118,276.206 1293.837,269.116 "/>
<polygon opacity="0.4" fill="#F45A2C" enable-background="new    " points="1027.104,401.105 1045.083,457.162 985.635,447.425 "/>
<polygon opacity="0.6" fill="#3CB64C" enable-background="new    " points="502.147,407.258 498.771,430.495 479.174,416.594 "/>
<polygon opacity="0.1" fill="#F45A2C" enable-background="new    " points="1472.346,269.002 1473.92,303.602 1441.665,288.916 "/>
<polygon opacity="0.6" fill="#F45A2C" enable-background="new    " points="454.414,379.103 462.375,403.925 436.051,399.613 "/>
<polygon opacity="0.1" fill="#F45A2C" enable-background="new    " points="1337.146,378.174 1347.123,409.287 1314.128,403.882 "/>
<polygon opacity="0.7" fill="#94268C" enable-background="new    " points="419.581,409.942 427.184,433.645 402.047,429.527 "/>
<polygon opacity="0.4" fill="#242264" enable-background="new    " points="1052.415,232.041 1046.088,299.134 987.909,262.108 "/>
<polygon opacity="0.7" fill="#FCF204" enable-background="new    " points="280.402,277.055 277.909,303.48 254.996,288.897 "/>
<polygon opacity="0.2" fill="#FCF204" enable-background="new    " points="1155.765,200.048 1151.921,240.791 1116.593,218.308 "/>
<polygon opacity="0.1" fill="#242264" enable-background="new    " points="1483.671,380.893 1488.344,407.991 1461.479,399.626 "/>
<polygon opacity="0.1" fill="#FCF204" enable-background="new    " points="1427.348,347.16 1437.355,405.172 1379.84,387.262 "/>
<polygon opacity="0.4" fill="#FCF204" enable-background="new    " points="1035.925,193.313 1032.672,227.795 1002.771,208.767 "/>
<polygon opacity="0.1" fill="#EC1E24" enable-background="new    " points="1666.556,370.727 1671.253,404.731 1637.281,395.435 "/>
<polygon opacity="0.1" fill="#FCF204" enable-background="new    " points="1502.92,434.314 1508.474,466.512 1476.552,456.572 "/>
<polygon opacity="0.1" fill="#3CB64C" enable-background="new    " points="1792.365,564.911 1773.632,642.379 1711.782,589.216 "/>
<polygon opacity="0.1" fill="#242264" enable-background="new    " points="1397.424,305.021 1387.806,344.8 1356.048,317.502 "/>
<polygon opacity="0.1" fill="#242264" enable-background="new    " points="1468.975,438.443 1465.188,518.055 1394.421,477.511 "/>
<polygon opacity="0.2" fill="#FCF204" enable-background="new    " points="1294.511,410.34 1292.676,448.904 1258.396,429.266 "/>
<polygon opacity="0.1" fill="#FCF204" enable-background="new    " points="1381.905,602.118 1379.961,642.996 1343.625,622.179 "/>
<polygon opacity="0.1" fill="#FCF204" enable-background="new    " points="1655.455,223.53 1619.094,248.435 1613.347,203.703 "/>
<polygon opacity="0.7" fill="#FCF204" enable-background="new    " points="382.769,400.203 377.249,423.026 359.027,407.363 "/>
<polygon opacity="0.8" fill="#F45A2C" enable-background="new    " points="153.161,238.402 162.202,253.209 144.5,254.546 "/>
<polygon opacity="0.1" fill="#04AEEC" enable-background="new    " points="1353.42,520.161 1351.774,554.758 1321.021,537.141 "/>
<polygon opacity="0.7" fill="#242264" enable-background="new    " points="417.443,352.303 423.062,377.758 397.254,371.019 "/>
<polygon opacity="0.7" fill="#FCF204" enable-background="new    " points="380.751,318.686 386.119,342.993 361.473,336.558 "/>
<polygon opacity="0.5" fill="#3CB64C" enable-background="new    " points="899.885,258.985 881.354,292.853 859.131,260.189 "/>
<polygon opacity="0.2" fill="#04AEEC" enable-background="new    " points="1158.979,473.229 1139.336,509.131 1115.78,474.505 "/>
<polygon opacity="0.4" fill="#94268C" enable-background="new    " points="982.096,376.341 961.479,440.501 912.631,391.822 "/>
<polygon opacity="0.1" fill="#3CB64C" enable-background="new    " points="1756.605,181.53 1744.794,218.286 1716.811,190.399 "/>
<polygon opacity="0.2" fill="#F45A2C" enable-background="new    " points="1217.774,441.908 1205.254,480.87 1175.591,451.31 "/>
<polygon opacity="0.2" fill="#3CB64C" enable-background="new    " points="1322.003,473.789 1303.993,529.835 1261.323,487.312 "/>
<polygon opacity="0.5" fill="#04AEEC" enable-background="new    " points="861.15,181.402 859.177,224.215 821.09,202.47 "/>
<polygon opacity="0.5" fill="#04AEEC" enable-background="new    " points="756.582,302.495 755.315,329.964 730.879,316.013 "/>
<polygon opacity="0.4" fill="#3CB64C" enable-background="new    " points="983.441,301.203 981.558,342.084 945.191,321.32 "/>
<polygon opacity="0.8" fill="#242264" enable-background="new    " points="136.125,390.812 131.252,374.161 148.692,377.479 "/>
<polygon opacity="0.7" fill="#3CB64C" enable-background="new    " points="355.57,280.29 344.974,313.265 319.869,288.247 "/>
<polygon opacity="0.3" fill="#242264" enable-background="new    " points="1090.151,410.949 1091.657,378.311 1120.692,394.889 "/>
<polygon opacity="0.6" fill="#F45A2C" enable-background="new    " points="630.098,289.396 653.435,314.989 619.245,324.326 "/>
<polygon opacity="0.1" fill="#242264" enable-background="new    " points="1674.945,556.718 1639.98,628.34 1591.021,563.112 "/>
<polygon opacity="0.8" fill="#04AEEC" enable-background="new    " points="49.619,339.348 43.837,351.188 35.743,340.405 "/>
<polygon opacity="0.1" fill="#04AEEC" enable-background="new    " points="1646.973,502.553 1629.02,539.329 1603.879,505.836 "/>
<polygon opacity="0.1" fill="#3CB64C" enable-background="new    " points="1598.2,192.959 1572.374,245.86 1536.211,197.682 "/>
<polygon opacity="0.2" fill="#F45A2C" enable-background="new    " points="1270.331,520.961 1259.636,560.463 1228.631,532.312 "/>
<polygon opacity="0.2" fill="#04AEEC" enable-background="new    " points="1205.975,396.612 1165.105,413.108 1169.118,368.188 "/>
<polygon opacity="0.5" fill="#242264" enable-background="new    " points="848.776,327.223 848.794,370.082 809.737,350.13 "/>
<polygon opacity="0.6" fill="#3CB64C" enable-background="new    " points="437.169,293.846 448.433,326.599 413.345,321.6 "/>
<polygon opacity="0.9" fill="#FCF204" enable-background="new    " points="21.135,293.303 16.6,310.049 3.458,298.116 "/>
<polygon opacity="0.7" fill="#3CB64C" enable-background="new    " points="332.233,416.203 332.243,442.271 308.489,430.136 "/>
<polygon opacity="0.7" fill="#242264" enable-background="new    " points="288.821,402.75 288.832,427.643 266.149,416.055 "/>
<polygon opacity="0.6" fill="#04AEEC" enable-background="new    " points="626.235,220.213 591.415,255.186 575.777,207.167 "/>
<polygon opacity="0.5" fill="#94268C" enable-background="new    " points="791.519,235.983 769.922,267.984 750.831,233.397 "/>
<polygon opacity="0.5" fill="#3CB64C" enable-background="new    " points="883.93,407.727 868.754,443.226 843.481,412.859 "/>
<polygon opacity="0.6" fill="#242264" enable-background="new    " points="541.374,285.374 537.561,312.607 514.525,296.447 "/>
<polygon opacity="0.5" fill="#3CB64C" enable-background="new    " points="814.492,278.125 808.818,318.656 774.538,294.603 "/>
<polygon opacity="0.7" fill="#04AEEC" enable-background="new    " points="418.771,271.559 405.155,303.406 382.485,276.166 "/>
<polygon opacity="0.6" fill="#3CB64C" enable-background="new    " points="593.26,275.619 587.363,309.436 557.845,290.222 "/>
<polygon opacity="0.6" fill="#242264" enable-background="new    " points="543.413,342.122 538.883,374.479 511.513,355.277 "/>
<polygon opacity="0.6" fill="#3CB64C" enable-background="new    " points="685.74,205.879 665.652,238.849 644.976,205.187 "/>
<polygon opacity="0.6" fill="#FCF204" enable-background="new    " points="553.252,223.222 531.96,258.171 510.041,222.488 "/>
<polygon opacity="0.8" fill="#242264" enable-background="new    " points="189.002,388.773 180.354,411.929 163.286,393.26 "/>
<polygon opacity="0.4" fill="#FCF204" enable-background="new    " points="1121.643,340.696 1108.134,376.863 1081.479,347.705 "/>
<polygon opacity="0.5" fill="#04AEEC" enable-background="new    " points="733.009,242.831 729.045,285.506 692.011,262.012 "/>
<polygon opacity="0.5" fill="#04AEEC" enable-background="new    " points="811.776,398.918 807.993,439.668 772.631,417.233 "/>
<polygon opacity="0.7" fill="#3CB64C" enable-background="new    " points="340.213,372.046 327.994,392.1 315.418,371.625 "/>
<polygon opacity="0.8" fill="#3CB64C" enable-background="new    " points="214.515,339.896 220.389,364.084 195.614,358.165 "/>
<polygon opacity="0.9" fill="#94268C" enable-background="new    " points="13.985,400.193 9.422,411.992 0.799,402.338 "/>
<polygon opacity="0.8" fill="#94268C" enable-background="new    " points="83.186,329.415 81.106,340.899 71.611,333.652 "/>
<polygon opacity="0.9" fill="#94268C" enable-background="new    " points="70.424,225.613 71.482,237.939 59.759,233.16 "/>
<polygon opacity="0.8" fill="#EC1E24" enable-background="new    " points="277.24,353.68 273.6,372.539 258.115,360.434 "/>
<polygon opacity="0.9" fill="#FCF204" enable-background="new    " points="-151.176,316.438 -155.116,329.948 -165.588,320.062 "/>
<polygon opacity="0.8" fill="#242264" enable-background="new    " points="133.244,356.234 130.969,343.042 144.047,347.115 "/>
<polygon opacity="0.8" fill="#242264" enable-background="new    " points="192.665,308.2 184.924,322.348 175.641,308.703 "/>
<polygon opacity="0.9" fill="#242264" enable-background="new    " points="-50.047,406.139 -54.123,392.214 -39.538,394.989 "/>
<polygon opacity="0.9" fill="#3CB64C" enable-background="new    " points="51.023,390.649 51.03,405.158 37.808,398.404 "/>
<polygon opacity="0.8" fill="#04AEEC" enable-background="new    " points="235.768,298.407 226.846,319.275 211.991,301.425 "/>
<polygon opacity="0.8" fill="#3CB64C" enable-background="new    " points="143.698,310.818 138.705,322.417 130.465,312.464 "/>
<polygon opacity="0.8" fill="#FCF204" enable-background="new    " points="106.961,351.338 107.944,340.756 117.128,346.581 "/>
<polygon opacity="0.9" fill="#3CB64C" enable-background="new    " points="-128.211,332.02 -135.119,343.356 -142.229,331.782 "/>
<polygon opacity="0.9" fill="#3CB64C" enable-background="new    " points="71.36,416.057 74.681,429.731 60.676,426.385 "/>
<polygon opacity="0.8" fill="#3CB64C" enable-background="new    " points="106.146,367.951 104.85,381.91 92.736,374.225 "/>
<polygon opacity="0.8" fill="#94268C" enable-background="new    " points="109.326,303.854 110.388,316.234 98.613,311.434 "/>
<polygon opacity="0.8" fill="#F45A2C" enable-background="new    " points="204.088,281.653 200.932,292.475 192.543,284.558 "/>
<polygon opacity="0.9" fill="#F45A2C" enable-background="new    " points="-43.008,295.695 -36.462,306.416 -49.279,307.383 "/>
<polygon opacity="0.9" fill="#FCF204" enable-background="new    " points="21.492,378.835 22.592,366.992 32.871,373.512 "/>
<polygon opacity="0.8" fill="#EC1E24" enable-background="new    " points="168.277,282.469 166.086,293.82 156.767,286.535 "/>
<polygon opacity="0.9" fill="#242264" enable-background="new    " points="-93.085,353.498 -96.499,341.834 -84.282,344.159 "/>
<polygon opacity="0.9" fill="#3CB64C" enable-background="new    " points="-93.139,366.801 -99.553,376.303 -105.221,366.032 "/>
<polygon opacity="0.9" fill="#3CB64C" enable-background="new    " points="-105.984,314.131 -103.116,325.941 -115.212,323.051 "/>
<polygon opacity="0.9" fill="#3CB64C" enable-background="new    " points="-25.527,352.795 -26.741,365.861 -38.08,358.668 "/>
<polygon opacity="0.2" fill="#FF66CC" enable-background="new    " points="1273.317,520.817 1170.909,485.456 1250.844,408.633 "/>
<polygon opacity="0.2" fill="#FF66CC" enable-background="new    " points="1299.3,290.925 1159.645,340.939 1179.151,190.402 "/>
<polygon opacity="0.6" fill="#FF66CC" enable-background="new    " points="589.727,415.639 538.188,456.431 525.038,390.47 "/>
<polygon opacity="0.8" fill="#FF66CC" enable-background="new    " points="180.813,339.403 178.428,369.047 153.09,352.258 "/>
<polygon opacity="0.8" fill="#FF66CC" enable-background="new    " points="130.147,274.848 128.65,290.387 115.191,281.784 "/>
<polygon opacity="0.9" fill="#FF66CC" enable-background="new    " points="14.05,346.878 12.429,363.72 -2.159,354.396 "/>
<polygon opacity="0.1" fill="#242264" enable-background="new    " points="1548.424,496.021 1538.806,535.8 1507.048,508.502 "/>
<polygon opacity="0.6" fill="#F45A2C" enable-background="new    " points="508.775,314.908 496.254,353.87 466.591,324.31 "/>
<polygon opacity="0.1" fill="#FCF204" enable-background="new    " points="1496.348,534.16 1506.355,592.172 1448.84,574.262 "/>
<polygon opacity="0.1" fill="#3CB64C" enable-background="new    " points="1733.169,496.846 1744.433,529.599 1709.345,524.6 "/>
<polygon opacity="0.1" fill="#94268C" enable-background="new    " points="1785.52,475.983 1763.922,507.984 1744.831,473.397 "/>
<polygon opacity="0.8" fill="#94268C" enable-background="new    " points="97.529,260.927 93.32,271.813 85.363,262.905 "/>
<polygon opacity="0.9" fill="#FCF204" enable-background="new    " points="-60.67,367.385 -64.61,380.895 -75.082,371.01 "/>
<polygon opacity="0.9" fill="#242264" enable-background="new    " points="69.049,372.211 65.674,360.682 77.75,362.979 "/>
<polygon opacity="0.9" fill="#3CB64C" enable-background="new    " points="-72.842,399.104 -72.835,413.176 -85.659,406.625 "/>
<polygon opacity="0.9" fill="#94268C" enable-background="new    " points="-14.345,309.854 -13.062,324.807 -27.283,319.009 "/>
<polygon opacity="0.9" fill="#242264" enable-background="new    " points="21.752,332.911 18.838,322.954 29.267,324.938 "/>
<polygon opacity="0.9" fill="#3CB64C" enable-background="new    " points="70.083,293.458 63.982,302.497 58.59,292.727 "/>
<polygon opacity="0.9" fill="#FCF204" enable-background="new    " points="-57.366,338.663 -56.474,329.055 -48.136,334.344 "/>
<polygon opacity="0.9" fill="#F45A2C" enable-background="new    " points="-121.995,297.98 -119.126,309.791 -131.223,306.899 "/>
<polygon opacity="0.9" fill="#3CB64C" enable-background="new    " points="-7.896,372.902 -9.073,385.574 -20.071,378.599 "/>
<polygon opacity="0.8" fill="#FF66CC" enable-background="new    " points="166.099,318.776 164.756,332.721 152.678,325 "/>
</svg>
