<?xml version="1.0" encoding="utf-8"?>
<!-- Generator: Adobe Illustrator 19.0.0, SVG Export Plug-In . SVG Version: 6.00 Build 0)  -->
<svg version="1.1" id="Layer_1" xmlns="http://www.w3.org/2000/svg" xmlns:xlink="http://www.w3.org/1999/xlink" x="0px" y="0px"
	 viewBox="0 0 165.7 156" style="enable-background:new 0 0 165.7 156;" xml:space="preserve">
<style type="text/css">
	.st0{clip-path:url(#XMLID_45_);fill:#FFFFFF;}
	.st1{clip-path:url(#XMLID_45_);}
</style>
<g id="XMLID_1_">
	<g id="XMLID_25_">
		<defs>
			<circle id="XMLID_24_" cx="78.6" cy="74.6" r="56.3"/>
		</defs>
		<clipPath id="XMLID_45_">
			<use xlink:href="#XMLID_24_"  style="overflow:visible;"/>
		</clipPath>
		<rect id="XMLID_26_" x="-34.4" y="-20" class="st0" width="228.9" height="165.8" fill="none"/>
		<polygon id="XMLID_27_" class="st0" points="86.6,194.7 71.6,194.7 73.8,105.8 83.9,105.8 		"/>
		<path id="XMLID_30_" class="st1" d="M89.7,202.2H68.5l2.5-98.9h15.7L89.7,202.2z M73.9,196.9h10.3l-2.7-88.3h-5.4L73.9,196.9z"/>
		<path id="XMLID_31_" class="st1" d="M118.6,73.3c0,20.6-17.4,13.7-38.9,13.7c-21.5,0-38.9,6.8-38.9-13.7
			c0-20.6,17.4-37.2,38.9-37.2C101.2,36.1,118.6,52.8,118.6,73.3z"/>
		<path id="XMLID_32_" class="st0" d="M105.8,80.9c0,14.8-12,26.8-26.8,26.8c-14.8,0-26.8-12-26.8-26.8s12-26.8,26.8-26.8
			C93.8,54.2,105.8,66.1,105.8,80.9z"/>
		<path id="XMLID_35_" class="st1" d="M79.1,110.4c-16.3,0-29.5-13.2-29.5-29.5c0-16.3,13.2-29.5,29.5-29.5
			c16.3,0,29.5,13.2,29.5,29.5C108.6,97.2,95.3,110.4,79.1,110.4z M79.1,56.9c-13.3,0-24,10.8-24,24c0,13.2,10.8,24,24,24
			c13.2,0,24-10.8,24-24C103.1,67.7,92.3,56.9,79.1,56.9z"/>
		<rect id="XMLID_36_" x="49.1" y="54.2" class="st1" width="59.2" height="28"/>
		<path id="XMLID_37_" class="st1" d="M70.5,89.4c0,1.8-1.4,3.2-3.2,3.2c-1.8,0-3.2-1.4-3.2-3.2c0-1.8,1.4-3.2,3.2-3.2
			C69.1,86.2,70.5,87.7,70.5,89.4z"/>
		<path id="XMLID_38_" class="st1" d="M94,89.4c0,1.8-1.4,3.2-3.2,3.2c-1.8,0-3.2-1.4-3.2-3.2c0-1.8,1.4-3.2,3.2-3.2
			C92.6,86.2,94,87.7,94,89.4z"/>
		<path id="XMLID_39_" class="st1" d="M85.8,133.6c0,0-5.2-6.4-14.2,0v61.1h14.9L85.8,133.6z"/>
	</g>
</g>
</svg>
