<svg xmlns="http://www.w3.org/2000/svg" viewBox="0 0 100 100.19"><defs><style>.cls-1{fill:#014334;}.cls-2{fill:#fff;}</style></defs><title>vida</title><g id="Layer_2" data-name="Layer 2"><g id="Layer_1-2" data-name="Layer 1"><circle class="cls-1" cx="50" cy="50" r="45"/><path class="cls-1" d="M50,10A40,40,0,1,1,10,50,40,40,0,0,1,50,10M50,0a50,50,0,1,0,50,50A50,50,0,0,0,50,0Z"/><path class="cls-2" d="M50.08,67.11c-8,0-15.07-6.45-18-16.21-2.68-.15-4.67-3.58-4.67-8.1A13.26,13.26,0,0,1,28,38.69a1.62,1.62,0,0,1,3.08,1,10,10,0,0,0-.46,3.09c0,3.14,1.22,4.86,1.62,4.86a1.77,1.77,0,0,1,1.52-.16,1.61,1.61,0,0,1,1,1.07c2.27,9.16,8.42,15.3,15.3,15.3s13-6.14,15.3-15.3a1.61,1.61,0,0,1,1-1.11,1.64,1.64,0,0,1,1.46.13c.55.12,1.72-1.64,1.72-4.79a9.91,9.91,0,0,0-.46-3.08,1.62,1.62,0,0,1,3.08-1,13.26,13.26,0,0,1,.63,4.11c0,4.52-2,8-4.68,8.1C65.16,60.66,58.07,67.11,50.08,67.11Z"/><path class="cls-2" d="M71.9,93.19c.27-.13.55-.23.83-.35h0a39.25,39.25,0,0,1,3.76-1.36c4.13-2.33,7.36-6.94,10.44-10.28-1.18-7-5.15-12.86-12.13-15.29L66.5,63a1.64,1.64,0,0,0-1.73.43c-4.09,4.47-9.3,29.09-14.69,29.09S39.48,67.9,35.4,63.44A1.63,1.63,0,0,0,33.67,63l-8.34,2.91c-6.67,2.31-10.81,7.77-12.27,14.36a3.61,3.61,0,0,1,1.07.78c2.62,2.77,5,6,8.13,8.17A4,4,0,0,1,23.7,91,31.13,31.13,0,0,1,29,94H70.74A3.57,3.57,0,0,1,71.9,93.19Z"/><path class="cls-2" d="M28.79,40.64a1.62,1.62,0,0,0,1.36.07c.47-.19,10.18-4.13,12.8-12.89,5.06,5.55,16.7,13,27.66,13a1.62,1.62,0,0,0,1.58-1.27,22.14,22.14,0,0,0,.59-4.86,22.7,22.7,0,0,0-45.39,0A22.09,22.09,0,0,0,28,39.55,1.65,1.65,0,0,0,28.79,40.64Z"/><path class="cls-2" d="M45.22,44.42H42a1.62,1.62,0,1,1,0-3.24h3.24a1.62,1.62,0,1,1,0,3.24Z"/><path class="cls-2" d="M58.19,44.42H54.94a1.62,1.62,0,1,1,0-3.24h3.25a1.62,1.62,0,1,1,0,3.24Z"/><path class="cls-2" d="M30.63,47.12V34.69a1.62,1.62,0,1,0-3.24,0c0,5.24-2.91,16.83-6,19.93a1.61,1.61,0,0,0,0,2.29C25,60.5,37.16,62.07,38.54,62.24h.19A1.62,1.62,0,0,0,40,59.66Z"/><path class="cls-2" d="M78.79,54.62c-3.11-3.1-6-14.69-6-19.93a1.63,1.63,0,0,0-3.25,0V47.12l-9.4,12.54a1.62,1.62,0,0,0,1.3,2.59h.2c1.38-.17,13.58-1.74,17.16-5.32A1.64,1.64,0,0,0,78.79,54.62Z"/><path class="cls-2" d="M43.54,97.15l1.25.88,1.46-2.51L39.53,93.3l-.4,2.94,2.41.25.8-2.89a7.84,7.84,0,0,1-3.25-1c-1.72-.86-3.2,1.62-1.52,2.59L40,96.58l.76-2.79-3-.6-.39,3q6,.61,11.94.94v-3L46.9,94v3h4V94H46.14v3l1.72-.19c1.87-.21,2-3,0-3H46v3c4-.12,7.51-.29,11.28-1.59l-1.16-2.75a19.36,19.36,0,0,1-4.67,1.53l1.15,2.74c2.89-1.55,5.82-3,8.83-4.22L60,90A65.72,65.72,0,0,1,54,93.67a1.5,1.5,0,0,0,1.15,2.74q3.84-1.17,7.57-2.63L61.6,91l-7,3.64c-1.74.9-.21,3.36,1.52,2.59a44.46,44.46,0,0,1,7.84-2.67l-1.16-2.74a55.57,55.57,0,0,0-5.28,3A1.5,1.5,0,0,0,59,97.5a14.77,14.77,0,0,1,4-1.63l-1.16-2.74a91.36,91.36,0,0,1-11.34,4.11L51.63,100a60.42,60.42,0,0,1,11.51-4.24c1.88-.49,1.07-3.25-.8-2.89a128.15,128.15,0,0,1-13.5,1.89l.4,3,7.16-1.37-1.15-2.74a25.67,25.67,0,0,1-7,2.4L49,98.87a34.8,34.8,0,0,1,7.06-2.05l-.8-2.89L49,96.09c-1.8.62-1.08,3.41.8,2.89l21.27-5.82-.8-2.89a67.07,67.07,0,0,0-6.6,3l1.52,2.59L67,94.73c1.41-.84.49-3.35-1.15-2.74a95.48,95.48,0,0,0-10.63,4.64c-1.74.89-.21,3.39,1.51,2.59,1-.47,3.35-2,4.53-2l-1.44-1.9-.08.23,1.85-1-.18-.06.36,2.75a78.59,78.59,0,0,1,9.33-5l-1.51-2.59-4.1,2.42A1.5,1.5,0,0,0,67,94.7l2.13-1.14A1.51,1.51,0,0,0,68,90.82C61.11,93,54.63,97.93,47.12,96.47c-1.89-.37-2.7,2.52-.8,2.89,8.3,1.62,14.86-3.28,22.46-5.65L67.62,91l-2.13,1.14L67,94.7l4.09-2.42c1.7-1,.22-3.36-1.51-2.59a77.82,77.82,0,0,0-9.33,5,1.52,1.52,0,0,0,.36,2.74l.17,0a1.52,1.52,0,0,0,1.84-1l.08-.23a1.52,1.52,0,0,0-1.45-1.9c-2.09,0-4.2,1.52-6,2.37l1.51,2.59a89.85,89.85,0,0,1,9.91-4.34l-1.15-2.74-1.83,1.08a1.5,1.5,0,0,0,1.52,2.59,57.64,57.64,0,0,1,5.88-2.65c1.77-.67,1.11-3.41-.8-2.89L49,96.09l.8,2.89,6.26-2.16a1.5,1.5,0,0,0-.8-2.89,33.9,33.9,0,0,0-7,2A1.5,1.5,0,0,0,49,98.87a27.79,27.79,0,0,0,7.77-2.7c1.6-.82.43-3-1.15-2.74L48.44,94.8c-1.64.31-1.29,3.09.4,2.94a135.1,135.1,0,0,0,14.3-2l-.8-2.89a63.85,63.85,0,0,0-12.22,4.54c-1.54.75-.46,3.21,1.15,2.74a97,97,0,0,0,12-4.41c1.57-.69.45-3.23-1.15-2.74a26.29,26.29,0,0,0-4.69,1.93L59,97.5a55.24,55.24,0,0,1,5.28-3c1.55-.79.45-3.14-1.16-2.74a49.83,49.83,0,0,0-8.56,3l1.52,2.59,7-3.64c1.48-.77.45-3.37-1.15-2.74-2.5,1-5,1.84-7.57,2.63l1.15,2.74a65.72,65.72,0,0,0,5.92-3.69A1.5,1.5,0,0,0,60,90c-3,1.27-6,2.67-8.83,4.22-1.54.82-.46,3.12,1.16,2.74a31.54,31.54,0,0,0,5.38-1.82c1.55-.68.45-3.3-1.15-2.75A33.6,33.6,0,0,1,46,93.86a1.5,1.5,0,0,0,0,3h1.83v-3L46.14,94c-1.87.2-2,3,0,3h4.74a1.5,1.5,0,0,0,0-3h-4a1.5,1.5,0,0,0,0,3l2.47,0c1.94,0,1.91-2.89,0-3q-6-.31-11.94-.94c-1.73-.18-2,2.48-.4,3a13.43,13.43,0,0,0,3.77.7c1.53.14,2-2.09.76-2.8l-2.47-1.42-1.52,2.59a13.19,13.19,0,0,0,4,1.33c1.88.32,2.7-2.55.8-2.89a19.24,19.24,0,0,0-3.21-.36c-1.75-.07-2,2.43-.4,3l6.72,2.23a1.51,1.51,0,0,0,1.46-2.51,5.7,5.7,0,0,0-2.57-1.66c-1.79-.72-2.57,2.18-.8,2.9Z"/><path class="cls-1" d="M50,4A46,46,0,1,1,4,50,46.06,46.06,0,0,1,50,4m0-4a50,50,0,1,0,50,50A50,50,0,0,0,50,0Z"/></g></g></svg>